<mxfile host="app.diagrams.net" modified="2023-07-30T11:47:02.949Z" agent="Mozilla/5.0 (Windows NT 10.0; Win64; x64) AppleWebKit/537.36 (KHTML, like Gecko) Chrome/114.0.0.0 Safari/537.36" etag="_sNjaL_o4XR5XbXz7MP5" version="21.6.6" type="device">
  <diagram name="Page-1" id="8DF8IOki5Xbwck_P7I39">
    <mxGraphModel dx="1450" dy="623" grid="0" gridSize="10" guides="1" tooltips="1" connect="1" arrows="1" fold="1" page="0" pageScale="1" pageWidth="850" pageHeight="1100" math="0" shadow="0">
      <root>
        <mxCell id="0" />
        <mxCell id="1" parent="0" />
        <mxCell id="LOD4Tzzb_Dn0aRAeC8s2-1" value="" style="image;html=1;image=img/lib/clip_art/networking/Switch_128x128.png;fontSize=16;" vertex="1" parent="1">
          <mxGeometry x="-140" y="185" width="60" height="60" as="geometry" />
        </mxCell>
        <mxCell id="LOD4Tzzb_Dn0aRAeC8s2-2" value="PC 1" style="image;points=[];aspect=fixed;html=1;align=center;shadow=0;dashed=0;image=img/lib/allied_telesis/computer_and_terminals/Personal_Computer.svg;fontSize=16;" vertex="1" parent="1">
          <mxGeometry x="-305.6" y="150" width="45.6" height="61.800000000000004" as="geometry" />
        </mxCell>
        <mxCell id="LOD4Tzzb_Dn0aRAeC8s2-3" value="PC 4" style="image;points=[];aspect=fixed;html=1;align=center;shadow=0;dashed=0;image=img/lib/allied_telesis/computer_and_terminals/Personal_Computer.svg;fontSize=16;" vertex="1" parent="1">
          <mxGeometry x="-132.8" y="350" width="45.6" height="61.800000000000004" as="geometry" />
        </mxCell>
        <mxCell id="LOD4Tzzb_Dn0aRAeC8s2-4" value="" style="image;points=[];aspect=fixed;html=1;align=center;shadow=0;dashed=0;image=img/lib/allied_telesis/computer_and_terminals/Personal_Computer.svg;fontSize=16;" vertex="1" parent="1">
          <mxGeometry x="-132.8" y="11" width="45.6" height="61.800000000000004" as="geometry" />
        </mxCell>
        <mxCell id="LOD4Tzzb_Dn0aRAeC8s2-5" value="PC 3" style="image;points=[];aspect=fixed;html=1;align=center;shadow=0;dashed=0;image=img/lib/allied_telesis/computer_and_terminals/Personal_Computer.svg;fontSize=16;" vertex="1" parent="1">
          <mxGeometry x="40" y="152" width="45.6" height="61.800000000000004" as="geometry" />
        </mxCell>
        <mxCell id="LOD4Tzzb_Dn0aRAeC8s2-6" value="" style="endArrow=none;html=1;rounded=0;fontSize=12;startSize=8;endSize=8;curved=1;exitX=0.943;exitY=1.045;exitDx=0;exitDy=0;exitPerimeter=0;entryX=0;entryY=0.5;entryDx=0;entryDy=0;" edge="1" parent="1" source="LOD4Tzzb_Dn0aRAeC8s2-2" target="LOD4Tzzb_Dn0aRAeC8s2-1">
          <mxGeometry width="50" height="50" relative="1" as="geometry">
            <mxPoint x="-147" y="224" as="sourcePoint" />
            <mxPoint x="-140" y="200" as="targetPoint" />
          </mxGeometry>
        </mxCell>
        <mxCell id="LOD4Tzzb_Dn0aRAeC8s2-7" value="" style="endArrow=none;html=1;rounded=0;fontSize=12;startSize=8;endSize=8;curved=1;entryX=-0.061;entryY=1.006;entryDx=0;entryDy=0;entryPerimeter=0;exitX=1;exitY=0.5;exitDx=0;exitDy=0;" edge="1" parent="1" source="LOD4Tzzb_Dn0aRAeC8s2-1" target="LOD4Tzzb_Dn0aRAeC8s2-5">
          <mxGeometry width="50" height="50" relative="1" as="geometry">
            <mxPoint x="-84" y="188" as="sourcePoint" />
            <mxPoint x="-97" y="174" as="targetPoint" />
          </mxGeometry>
        </mxCell>
        <mxCell id="LOD4Tzzb_Dn0aRAeC8s2-8" value="" style="endArrow=none;html=1;rounded=0;fontSize=12;startSize=8;endSize=8;curved=1;exitX=0.518;exitY=-0.032;exitDx=0;exitDy=0;exitPerimeter=0;entryX=0.5;entryY=1;entryDx=0;entryDy=0;" edge="1" parent="1" source="LOD4Tzzb_Dn0aRAeC8s2-3" target="LOD4Tzzb_Dn0aRAeC8s2-1">
          <mxGeometry width="50" height="50" relative="1" as="geometry">
            <mxPoint x="-147" y="224" as="sourcePoint" />
            <mxPoint x="-140" y="245" as="targetPoint" />
          </mxGeometry>
        </mxCell>
        <mxCell id="LOD4Tzzb_Dn0aRAeC8s2-11" value="" style="endArrow=none;html=1;rounded=0;fontSize=12;startSize=8;endSize=8;curved=1;exitX=0.5;exitY=0;exitDx=0;exitDy=0;entryX=0.518;entryY=1.026;entryDx=0;entryDy=0;entryPerimeter=0;" edge="1" parent="1" source="LOD4Tzzb_Dn0aRAeC8s2-1" target="LOD4Tzzb_Dn0aRAeC8s2-4">
          <mxGeometry width="50" height="50" relative="1" as="geometry">
            <mxPoint x="23" y="107" as="sourcePoint" />
            <mxPoint x="73" y="57" as="targetPoint" />
          </mxGeometry>
        </mxCell>
        <mxCell id="LOD4Tzzb_Dn0aRAeC8s2-12" value="PC 2" style="text;html=1;strokeColor=none;fillColor=none;align=center;verticalAlign=middle;whiteSpace=wrap;rounded=0;fontSize=16;" vertex="1" parent="1">
          <mxGeometry x="-87.2" y="29" width="60" height="30" as="geometry" />
        </mxCell>
        <mxCell id="LOD4Tzzb_Dn0aRAeC8s2-13" value="Switch" style="text;html=1;strokeColor=none;fillColor=none;align=center;verticalAlign=middle;whiteSpace=wrap;rounded=0;fontSize=16;" vertex="1" parent="1">
          <mxGeometry x="-107" y="223" width="60" height="30" as="geometry" />
        </mxCell>
      </root>
    </mxGraphModel>
  </diagram>
</mxfile>
